<svg width="21" height="21" viewBox="0 0 21 21" fill="none" xmlns="http://www.w3.org/2000/svg">
<path d="M10.5 0C7.64561 0 7.28988 0.013783 6.1728 0.0610389C5.05113 0.116171 4.29241 0.290099 3.62295 0.550006C2.92229 0.814521 2.28775 1.22866 1.76356 1.76356C1.22717 2.28653 0.812799 2.92142 0.550006 3.62295C0.290099 4.29241 0.116171 5.05113 0.0610389 6.1728C0.0105013 7.29054 0 7.64561 0 10.5C0 13.3544 0.013783 13.7101 0.0610389 14.8272C0.116171 15.9456 0.290099 16.7076 0.550006 17.377C0.814522 18.0777 1.22866 18.7122 1.76356 19.2364C2.28653 19.7728 2.92142 20.1872 3.62295 20.45C4.29241 20.7066 5.05441 20.8838 6.1728 20.939C7.29054 20.9895 7.64561 21 10.5 21C13.3544 21 13.7101 20.9862 14.8272 20.939C15.9456 20.8838 16.7076 20.706 17.377 20.45C18.0777 20.1855 18.7122 19.7713 19.2364 19.2364C19.7735 18.714 20.188 18.079 20.45 17.377C20.7066 16.7076 20.8838 15.9456 20.939 14.8272C20.9895 13.7095 21 13.3544 21 10.5C21 7.64561 20.9862 7.28988 20.939 6.1728C20.8838 5.05441 20.706 4.28847 20.45 3.62295C20.1855 2.92229 19.7713 2.28775 19.2364 1.76356C18.714 1.22648 18.079 0.812001 17.377 0.550006C16.7076 0.290099 15.9456 0.116171 14.8272 0.0610389C13.7095 0.0105013 13.3544 0 10.5 0ZM10.5 1.89024C13.3032 1.89024 13.6379 1.90402 14.7458 1.95128C15.7677 1.99919 16.3243 2.16983 16.6938 2.31423C17.1506 2.48285 17.5641 2.75125 17.9041 3.09986C18.2521 3.43841 18.5195 3.85093 18.6864 4.30685C18.8308 4.67637 19.0015 5.23293 19.0494 6.25484C19.0966 7.36273 19.1104 7.69812 19.1104 10.5007C19.1104 13.3032 19.0966 13.6386 19.0454 14.7465C18.9903 15.7684 18.8197 16.3249 18.6759 16.6945C18.4771 17.1874 18.2552 17.5319 17.889 17.9047C17.5478 18.2512 17.1347 18.5183 16.6787 18.6871C16.3138 18.8315 15.7493 19.0021 14.7235 19.05C13.6097 19.0973 13.2815 19.1111 10.4711 19.1111C7.66071 19.1111 7.3332 19.0973 6.21809 19.0461C5.19618 18.991 4.63239 18.8203 4.26288 18.6766C3.76406 18.4777 3.42212 18.2559 3.05588 17.8896C2.68637 17.5201 2.4514 17.1683 2.27025 16.6794C2.12323 16.3144 1.95521 15.75 1.90074 14.7242C1.86333 13.6235 1.84561 13.2822 1.84561 10.4849C1.84561 7.68893 1.86333 7.34698 1.90074 6.23253C1.95521 5.20668 2.12323 4.64355 2.27025 4.27732C2.4514 3.77785 2.68702 3.43655 3.05588 3.06704C3.42146 2.70146 3.76406 2.46518 4.26288 2.2801C4.63239 2.13636 5.1824 1.96571 6.20825 1.91452C7.32204 1.87448 7.65021 1.86004 10.4567 1.86004L10.5 1.89024ZM10.5 5.11086C9.79204 5.1106 9.09097 5.24985 8.43686 5.52065C7.78274 5.79146 7.1884 6.18851 6.6878 6.68911C6.18719 7.18971 5.79015 7.78405 5.51934 8.43817C5.24854 9.09229 5.10929 9.79335 5.10955 10.5013C5.10929 11.2093 5.24854 11.9103 5.51934 12.5645C5.79015 13.2186 6.18719 13.8129 6.6878 14.3135C7.1884 14.8141 7.78274 15.2112 8.43686 15.482C9.09097 15.7528 9.79204 15.892 10.5 15.8918C11.208 15.892 11.909 15.7528 12.5631 15.482C13.2173 15.2112 13.8116 14.8141 14.3122 14.3135C14.8128 13.8129 15.2099 13.2186 15.4807 12.5645C15.7515 11.9103 15.8907 11.2093 15.8905 10.5013C15.8907 9.79335 15.7515 9.09229 15.4807 8.43817C15.2099 7.78405 14.8128 7.18971 14.3122 6.68911C13.8116 6.18851 13.2173 5.79146 12.5631 5.52065C11.909 5.24985 11.208 5.1106 10.5 5.11086ZM10.5 14.0015C8.56513 14.0015 6.99978 12.4362 6.99978 10.5013C6.99978 8.56645 8.56513 7.00109 10.5 7.00109C12.4349 7.00109 14.0002 8.56645 14.0002 10.5013C14.0002 12.4362 12.4349 14.0015 10.5 14.0015ZM17.3679 4.89558C17.3675 5.23009 17.2344 5.55078 16.9977 5.78719C16.7611 6.0236 16.4402 6.15639 16.1057 6.15639C15.9403 6.15639 15.7766 6.12382 15.6237 6.06052C15.4709 5.99722 15.3321 5.90445 15.2151 5.7875C15.0982 5.67054 15.0054 5.53169 14.9421 5.37888C14.8788 5.22607 14.8462 5.06229 14.8462 4.89689C14.8462 4.73149 14.8788 4.56771 14.9421 4.4149C15.0054 4.26209 15.0982 4.12325 15.2151 4.00629C15.3321 3.88934 15.4709 3.79656 15.6237 3.73327C15.7766 3.66997 15.9403 3.63739 16.1057 3.63739C16.7995 3.63739 17.3679 4.20184 17.3679 4.89558Z" fill="#A88D30" fill-opacity="0.7"/>
</svg>
