<svg width="24" height="19" viewBox="0 0 24 19" fill="none" xmlns="http://www.w3.org/2000/svg">
<path d="M23.38 2.25625C22.5202 2.62714 21.5846 2.89406 20.6208 2.99802C21.6214 2.40358 22.3707 1.46446 22.7281 0.356851C21.7892 0.915401 20.7606 1.30707 19.688 1.51447C19.2397 1.0352 18.6975 0.653393 18.0951 0.392837C17.4928 0.132281 16.8433 -0.00143799 16.187 1.16616e-05C13.5318 1.16616e-05 11.3964 2.15229 11.3964 4.79346C11.3964 5.16435 11.4413 5.53524 11.5144 5.89208C7.53858 5.68415 3.99267 3.78476 1.63528 0.876656C1.20574 1.61033 0.980644 2.4457 0.983415 3.29586C0.983415 4.95924 1.82915 6.42593 3.11883 7.28853C2.3588 7.2586 1.61657 7.04969 0.952508 6.67881V6.73781C0.952508 9.0671 2.59903 10.9974 4.79345 11.4414C4.38142 11.5484 3.95756 11.6031 3.53187 11.6043C3.21998 11.6043 2.92496 11.5734 2.62712 11.5313C3.23403 13.4307 5.00137 14.8103 7.10588 14.8552C5.45936 16.1449 3.397 16.9035 1.15762 16.9035C0.755825 16.9035 0.384937 16.8895 0 16.8445C2.12418 18.2073 4.64453 18.994 7.35876 18.994C16.1702 18.994 20.9917 11.6942 20.9917 5.35822C20.9917 5.1503 20.9917 4.94238 20.9777 4.73446C21.9105 4.05168 22.7281 3.20595 23.38 2.25625Z" fill="#A88D30" fill-opacity="0.7"/>
</svg>
